<svg viewBox="0 0 136 15" fill="none" xmlns="http://www.w3.org/2000/svg">
<path d="M7.49275 0.463525C7.64243 0.00286996 8.29413 0.00286984 8.44381 0.463525L9.86953 4.85144C9.93647 5.05745 10.1284 5.19693 10.3451 5.19693H14.9588C15.4431 5.19693 15.6445 5.81674 15.2527 6.10144L11.5201 8.81332C11.3448 8.94064 11.2715 9.16632 11.3385 9.37234L12.7642 13.7602C12.9139 14.2209 12.3866 14.604 11.9948 14.3193L8.26217 11.6074C8.08693 11.4801 7.84963 11.4801 7.67439 11.6074L3.94181 14.3193C3.54995 14.604 3.02271 14.2209 3.17239 13.7602L4.59811 9.37234C4.66504 9.16632 4.59171 8.94064 4.41647 8.81332L0.683888 6.10144C0.292031 5.81674 0.493419 5.19693 0.97778 5.19693H5.59151C5.80812 5.19693 6.0001 5.05745 6.06703 4.85144L7.49275 0.463525Z" fill="#1EA0D7"/>
<path d="M37.5084 0.463525C37.6581 0.00286996 38.3098 0.00286984 38.4594 0.463525L39.8852 4.85144C39.9521 5.05745 40.1441 5.19693 40.3607 5.19693H44.9744C45.4588 5.19693 45.6602 5.81674 45.2683 6.10144L41.5357 8.81332C41.3605 8.94064 41.2871 9.16632 41.3541 9.37234L42.7798 13.7602C42.9295 14.2209 42.4022 14.604 42.0104 14.3193L38.2778 11.6074C38.1026 11.4801 37.8653 11.4801 37.69 11.6074L33.9574 14.3193C33.5656 14.604 33.0383 14.2209 33.188 13.7602L34.6137 9.37234C34.6807 9.16632 34.6073 8.94064 34.4321 8.81332L30.6995 6.10144C30.3077 5.81674 30.509 5.19693 30.9934 5.19693H35.6071C35.8237 5.19693 36.0157 5.05745 36.0827 4.85144L37.5084 0.463525Z" fill="#1EA0D7"/>
<path d="M67.524 0.463525C67.6737 0.00286996 68.3254 0.00286984 68.4751 0.463525L69.9008 4.85144C69.9677 5.05745 70.1597 5.19693 70.3763 5.19693H74.99C75.4744 5.19693 75.6758 5.81674 75.2839 6.10144L71.5513 8.81332C71.3761 8.94064 71.3028 9.16632 71.3697 9.37234L72.7954 13.7602C72.9451 14.2209 72.4179 14.604 72.026 14.3193L68.2934 11.6074C68.1182 11.4801 67.8809 11.4801 67.7056 11.6074L63.9731 14.3193C63.5812 14.604 63.054 14.2209 63.2036 13.7602L64.6294 9.37234C64.6963 9.16632 64.623 8.94064 64.4477 8.81332L60.7151 6.10144C60.3233 5.81674 60.5247 5.19693 61.009 5.19693H65.6228C65.8394 5.19693 66.0313 5.05745 66.0983 4.85144L67.524 0.463525Z" fill="#1EA0D7"/>
<path d="M97.5396 0.463525C97.6893 0.00286996 98.341 0.00286984 98.4907 0.463525L99.9164 4.85144C99.9833 5.05745 100.175 5.19693 100.392 5.19693H105.006C105.49 5.19693 105.691 5.81674 105.3 6.10144L101.567 8.81332C101.392 8.94064 101.318 9.16632 101.385 9.37234L102.811 13.7602C102.961 14.2209 102.433 14.604 102.042 14.3193L98.309 11.6074C98.1338 11.4801 97.8965 11.4801 97.7213 11.6074L93.9887 14.3193C93.5968 14.604 93.0696 14.2209 93.2193 13.7602L94.645 9.37234C94.7119 9.16632 94.6386 8.94064 94.4633 8.81332L90.7308 6.10144C90.3389 5.81674 90.5403 5.19693 91.0247 5.19693H95.6384C95.855 5.19693 96.047 5.05745 96.1139 4.85144L97.5396 0.463525Z" fill="#1EA0D7"/>
<path d="M128.032 0.618033L129.457 5.00595C129.591 5.41797 129.975 5.69693 130.409 5.69693H135.022L131.29 8.40881C130.939 8.66345 130.793 9.11482 130.926 9.52684L132.352 13.9148L128.62 11.2029C128.269 10.9482 127.794 10.9482 127.444 11.2029L123.711 13.9148L125.137 9.52684C125.271 9.11482 125.124 8.66345 124.774 8.40881L121.041 5.69693H125.655C126.088 5.69693 126.472 5.41797 126.606 5.00595L128.032 0.618033Z" stroke="#1EA0D7"/>
</svg>
