<svg viewBox="0 0 136 15" fill="none" xmlns="http://www.w3.org/2000/svg">
<path d="M7.49275 0.463525C7.64243 0.00286996 8.29413 0.00286984 8.44381 0.463525L9.86953 4.85144C9.93647 5.05745 10.1284 5.19693 10.3451 5.19693H14.9588C15.4431 5.19693 15.6445 5.81674 15.2527 6.10144L11.5201 8.81332C11.3448 8.94064 11.2715 9.16632 11.3385 9.37234L12.7642 13.7602C12.9139 14.2209 12.3866 14.604 11.9948 14.3193L8.26217 11.6074C8.08693 11.4801 7.84963 11.4801 7.67439 11.6074L3.94181 14.3193C3.54995 14.604 3.02271 14.2209 3.17239 13.7602L4.59811 9.37234C4.66504 9.16632 4.59171 8.94064 4.41647 8.81332L0.683888 6.10144C0.292031 5.81674 0.493419 5.19693 0.97778 5.19693H5.59151C5.80812 5.19693 6.0001 5.05745 6.06703 4.85144L7.49275 0.463525Z" fill="#1EA0D7"/>
<path d="M37.5084 0.463525C37.6581 0.00286996 38.3098 0.00286984 38.4594 0.463525L39.8852 4.85144C39.9521 5.05745 40.1441 5.19693 40.3607 5.19693H44.9744C45.4588 5.19693 45.6602 5.81674 45.2683 6.10144L41.5357 8.81332C41.3605 8.94064 41.2871 9.16632 41.3541 9.37234L42.7798 13.7602C42.9295 14.2209 42.4022 14.604 42.0104 14.3193L38.2778 11.6074C38.1026 11.4801 37.8653 11.4801 37.69 11.6074L33.9574 14.3193C33.5656 14.604 33.0383 14.2209 33.188 13.7602L34.6137 9.37234C34.6807 9.16632 34.6073 8.94064 34.4321 8.81332L30.6995 6.10144C30.3077 5.81674 30.509 5.19693 30.9934 5.19693H35.6071C35.8237 5.19693 36.0157 5.05745 36.0827 4.85144L37.5084 0.463525Z" fill="#1EA0D7"/>
<path d="M67.9995 0.618033L69.4253 5.00595C69.5591 5.41797 69.9431 5.69693 70.3763 5.69693H74.99L71.2575 8.40881C70.907 8.66345 70.7603 9.11482 70.8942 9.52684L72.3199 13.9148L68.5873 11.2029C68.2368 10.9482 67.7622 10.9482 67.4117 11.2029L63.6792 13.9148L65.1049 9.52684C65.2388 9.11482 65.0921 8.66345 64.7416 8.40881L61.009 5.69693H65.6228C66.056 5.69693 66.4399 5.41797 66.5738 5.00595L67.9995 0.618033Z" stroke="#1EA0D7"/>
<path d="M98.0152 0.618033L99.4409 5.00595C99.5748 5.41797 99.9587 5.69693 100.392 5.69693H105.006L101.273 8.40881C100.923 8.66345 100.776 9.11482 100.91 9.52684L102.336 13.9148L98.6029 11.2029C98.2525 10.9482 97.7779 10.9482 97.4274 11.2029L93.6948 13.9148L95.1205 9.52684C95.2544 9.11482 95.1077 8.66345 94.7572 8.40881L91.0247 5.69693H95.6384C96.0716 5.69693 96.4556 5.41797 96.5894 5.00595L98.0152 0.618033Z" stroke="#1EA0D7"/>
<path d="M128.032 0.618033L129.457 5.00595C129.591 5.41797 129.975 5.69693 130.409 5.69693H135.022L131.29 8.40881C130.939 8.66345 130.793 9.11482 130.926 9.52684L132.352 13.9148L128.62 11.2029C128.269 10.9482 127.794 10.9482 127.444 11.2029L123.711 13.9148L125.137 9.52684C125.271 9.11482 125.124 8.66345 124.774 8.40881L121.041 5.69693H125.655C126.088 5.69693 126.472 5.41797 126.606 5.00595L128.032 0.618033Z" stroke="#1EA0D7"/>
</svg>
